<svg width="800" height="800" viewBox="0 0 800 800" fill="none" xmlns="http://www.w3.org/2000/svg">
<path fill-rule="evenodd" clip-rule="evenodd" d="M400 750C206.7 750 50 593.25 50 400C50 206.75 206.7 50 400 50C593.3 50 750 206.75 750 400C750 593.25 593.3 750 400 750ZM400 0C179.075 0 0 179 0 400C0 621 179.075 800 400 800C620.925 800 800 621 800 400C800 179 620.925 0 400 0ZM550 375H425V250C425 236.25 413.825 225 400 225C386.175 225 375 236.25 375 250V375H250C236.175 375 225 386.25 225 400C225 413.75 236.175 425 250 425H375V550C375 563.75 386.175 575 400 575C413.825 575 425 563.75 425 550V425H550C563.825 425 575 413.75 575 400C575 386.25 563.825 375 550 375Z" fill="black"/>
</svg>
