<svg width="400" height="400" viewBox="0 0 400 400" fill="none" xmlns="http://www.w3.org/2000/svg">
<g clip-path="url(#clip0_280_29)">
<path d="M200 400C310.457 400 400 310.457 400 200C400 89.543 310.457 0 200 0C89.543 0 0 89.543 0 200C0 310.457 89.543 400 200 400Z" fill="#31BAFD"/>
<path d="M399.67 211.401L299.302 111.034L185.319 219.89L103.055 291.533L211.205 399.683C312.673 394.078 393.968 312.843 399.67 211.401Z" fill="#2B9ED8"/>
<path d="M200 333.334C273.638 333.334 333.334 273.638 333.334 200C333.334 126.362 273.638 66.6665 200 66.6665C126.362 66.6665 66.6664 126.362 66.6664 200C66.6664 273.638 126.362 333.334 200 333.334Z" fill="#FFD15D"/>
<path d="M333.334 200C333.334 273.637 273.638 333.334 200 333.334C126.362 333.334 66.6664 273.637 66.6664 200H333.334Z" fill="#F9B54C"/>
<path d="M175.56 119.05L256.538 200L175.559 281.003L153.652 259.103L212.729 200.007L153.66 140.957L175.56 119.05Z" fill="#324A5E"/>
<path d="M212.713 200L153 259.081L175.139 281L257 200.006L212.713 200Z" fill="#2B3B4E"/>
</g>
<defs>
<clipPath id="clip0_280_29">
<rect width="400" height="400" fill="white"/>
</clipPath>
</defs>
</svg>
