<svg width="300" height="300" viewBox="0 0 300 300" fill="none" xmlns="http://www.w3.org/2000/svg">
<circle cx="150" cy="150" r="150" fill="white"/>
<path d="M110.151 230.161L109.935 230.594L110.151 230.161C106.85 228.518 103.059 227.961 99.4653 228.923L79.4309 234.283C71.1055 236.511 63.489 228.895 65.7166 220.57L65.2336 220.44L65.7166 220.57L71.0771 200.535C72.0387 196.941 71.4829 193.15 69.8387 189.85C63.8618 177.849 60.5 164.318 60.5 150C60.5 100.57 100.57 60.5 150 60.5C199.429 60.5 239.5 100.57 239.5 150C239.5 199.429 199.429 239.5 150 239.5C135.682 239.5 122.151 236.138 110.151 230.161ZM109 141.976C109 148.288 112.037 154.702 116.392 160.665C120.752 166.637 126.474 172.212 131.933 176.856L132.03 176.938C139.352 183.168 143.195 186.438 150 186.438C156.805 186.438 160.648 183.168 167.97 176.938L168.067 176.856C173.526 172.212 179.248 166.637 183.608 160.665C187.963 154.702 191 148.288 191 141.976C191 129.774 185.348 121.278 177.259 118.253C169.28 115.27 159.117 117.68 150 126.788C140.883 117.68 130.72 115.27 122.741 118.253C114.652 121.278 109 129.774 109 141.976Z" fill="#1C274C"/>
<path d="M110.151 230.161L109.935 230.594L110.151 230.161C106.85 228.518 103.059 227.961 99.4653 228.923L79.4309 234.283C71.1055 236.511 63.489 228.895 65.7166 220.57L65.2336 220.44L65.7166 220.57L71.0771 200.535C72.0387 196.941 71.4829 193.15 69.8387 189.85C63.8618 177.849 60.5 164.318 60.5 150C60.5 100.57 100.57 60.5 150 60.5C199.429 60.5 239.5 100.57 239.5 150C239.5 199.429 199.429 239.5 150 239.5C135.682 239.5 122.151 236.138 110.151 230.161ZM109 141.976C109 148.288 112.037 154.702 116.392 160.665C120.752 166.637 126.474 172.212 131.933 176.856L132.03 176.938C139.352 183.168 143.195 186.438 150 186.438C156.805 186.438 160.648 183.168 167.97 176.938L168.067 176.856C173.526 172.212 179.248 166.637 183.608 160.665C187.963 154.702 191 148.288 191 141.976C191 129.774 185.348 121.278 177.259 118.253C169.28 115.27 159.117 117.68 150 126.788C140.883 117.68 130.72 115.27 122.741 118.253C114.652 121.278 109 129.774 109 141.976Z" stroke="black"/>
<path d="M110.151 230.161L109.935 230.594L110.151 230.161C106.85 228.518 103.059 227.961 99.4653 228.923L79.4309 234.283C71.1055 236.511 63.489 228.895 65.7166 220.57L65.2336 220.44L65.7166 220.57L71.0771 200.535C72.0387 196.941 71.4829 193.15 69.8387 189.85C63.8618 177.849 60.5 164.318 60.5 150C60.5 100.57 100.57 60.5 150 60.5C199.429 60.5 239.5 100.57 239.5 150C239.5 199.429 199.429 239.5 150 239.5C135.682 239.5 122.151 236.138 110.151 230.161ZM109 141.976C109 148.288 112.037 154.702 116.392 160.665C120.752 166.637 126.474 172.212 131.933 176.856L132.03 176.938C139.352 183.168 143.195 186.438 150 186.438C156.805 186.438 160.648 183.168 167.97 176.938L168.067 176.856C173.526 172.212 179.248 166.637 183.608 160.665C187.963 154.702 191 148.288 191 141.976C191 129.774 185.348 121.278 177.259 118.253C169.28 115.27 159.117 117.68 150 126.788C140.883 117.68 130.72 115.27 122.741 118.253C114.652 121.278 109 129.774 109 141.976Z" stroke="black" stroke-opacity="0.2"/>
</svg>
