<svg width="308" height="308" viewBox="0 0 308 308" fill="none" xmlns="http://www.w3.org/2000/svg">
<g filter="url(#filter0_d_19_10)">
<circle cx="154" cy="150" r="150" fill="white"/>
<path fill-rule="evenodd" clip-rule="evenodd" d="M62.0815 75.9014C63.3095 72.2174 67.2914 70.2265 70.9753 71.4545L73.459 72.2823C73.5827 72.3236 73.706 72.3647 73.829 72.4057C79.7012 74.3629 84.6637 76.0168 88.5658 77.8321C92.7137 79.7618 96.3127 82.1532 99.0417 85.9395C101.771 89.7259 102.901 93.8965 103.42 98.4417C103.909 102.718 103.908 107.948 103.908 114.138V139.062C103.908 152.519 103.923 161.905 104.875 168.987C105.8 175.865 107.492 179.508 110.086 182.103C112.681 184.697 116.324 186.389 123.203 187.314C130.284 188.266 139.67 188.281 153.127 188.281H218.752C222.635 188.281 225.783 191.429 225.783 195.312C225.783 199.196 222.635 202.344 218.752 202.344H152.612C139.791 202.344 129.457 202.344 121.329 201.252C112.891 200.117 105.786 197.69 100.143 192.046C94.4997 186.403 92.0725 179.298 90.9381 170.86C89.8453 162.732 89.8454 152.398 89.8456 139.577V114.528C89.8456 107.844 89.835 103.421 89.4486 100.037C89.0828 96.832 88.4439 95.2861 87.6337 94.1621C86.8235 93.038 85.559 91.943 82.6344 90.5825C79.5458 89.1457 75.3533 87.7369 69.0119 85.6232L66.5284 84.7953C62.8445 83.5674 60.8535 79.5854 62.0815 75.9014Z" fill="#1C274C"/>
<path opacity="0.5" d="M103.86 106.25C103.907 108.679 103.907 111.308 103.907 114.138L103.907 139.062C103.907 152.519 103.922 161.905 104.874 168.986C105.013 170.02 105.169 170.98 105.343 171.875H200.207C209.202 171.875 213.699 171.875 217.221 169.552C220.743 167.23 222.515 163.096 226.058 154.828L230.076 145.453C237.665 127.746 241.459 118.892 237.291 112.571C233.123 106.25 223.49 106.25 204.225 106.25H103.86Z" fill="#1C274C"/>
<path d="M117.969 134.375C117.969 130.492 121.117 127.344 125 127.344H153.125C157.008 127.344 160.156 130.492 160.156 134.375C160.156 138.258 157.008 141.406 153.125 141.406H125C121.117 141.406 117.969 138.258 117.969 134.375Z" fill="#1C274C"/>
<path d="M120.312 218.75C128.079 218.75 134.375 225.046 134.375 232.812C134.375 240.579 128.079 246.875 120.312 246.875C112.546 246.875 106.25 240.579 106.25 232.812C106.25 225.046 112.546 218.75 120.312 218.75Z" fill="#1C274C"/>
<path d="M218.75 232.813C218.75 225.046 212.454 218.751 204.688 218.751C196.921 218.751 190.625 225.046 190.625 232.813C190.625 240.58 196.921 246.876 204.688 246.876C212.454 246.876 218.75 240.58 218.75 232.813Z" fill="#1C274C"/>
</g>
<defs>
<filter id="filter0_d_19_10" x="0" y="0" width="308" height="308" filterUnits="userSpaceOnUse" color-interpolation-filters="sRGB">
<feFlood flood-opacity="0" result="BackgroundImageFix"/>
<feColorMatrix in="SourceAlpha" type="matrix" values="0 0 0 0 0 0 0 0 0 0 0 0 0 0 0 0 0 0 127 0" result="hardAlpha"/>
<feOffset dy="4"/>
<feGaussianBlur stdDeviation="2"/>
<feComposite in2="hardAlpha" operator="out"/>
<feColorMatrix type="matrix" values="0 0 0 0 0 0 0 0 0 0 0 0 0 0 0 0 0 0 0.25 0"/>
<feBlend mode="normal" in2="BackgroundImageFix" result="effect1_dropShadow_19_10"/>
<feBlend mode="normal" in="SourceGraphic" in2="effect1_dropShadow_19_10" result="shape"/>
</filter>
</defs>
</svg>
