<svg width="300" height="300" viewBox="0 0 300 300" fill="none" xmlns="http://www.w3.org/2000/svg">
<circle cx="150" cy="150" r="150" fill="white"/>
<path d="M192.667 154C215.678 154 234.333 135.345 234.333 112.333C234.333 89.3215 215.678 70.6667 192.667 70.6667C169.655 70.6667 151 89.3215 151 112.333C151 118.999 152.565 125.299 155.347 130.885C156.087 132.37 156.333 134.067 155.905 135.669L153.423 144.944C152.346 148.971 156.029 152.654 160.056 151.577L169.331 149.095C170.933 148.667 172.63 148.913 174.115 149.653C179.702 152.435 186.002 154 192.667 154Z" fill="#1C274C"/>
<path opacity="0.5" d="M117.98 114.968L123.388 124.659C128.269 133.405 126.31 144.877 118.623 152.565C118.623 152.565 109.299 161.89 126.204 178.796C143.104 195.696 152.435 186.377 152.435 186.377C160.122 178.69 171.595 176.731 180.341 181.612L190.032 187.02C203.238 194.39 204.797 212.91 193.19 224.518C186.215 231.493 177.67 236.921 168.224 237.278C152.323 237.882 125.319 233.857 98.2308 206.769C71.1427 179.681 67.1184 152.677 67.7212 136.776C68.0793 127.33 73.5066 118.785 80.4817 111.81C92.0896 100.202 110.61 101.762 117.98 114.968Z" fill="#1C274C"/>
</svg>
